<svg xmlns="http://www.w3.org/2000/svg" version="1.1" xmlns:xlink="http://www.w3.org/1999/xlink" xmlns:svgjs="http://svgjs.dev/svgjs" width="1500" height="1500" viewBox="0 0 1500 1500"><rect width="1500" height="1500" fill="#ffffff"></rect><g transform="matrix(0.6666666666666666,0,0,0.6666666666666666,249.39393939393938,438.5856950067477)"><svg viewBox="0 0 396 247" data-background-color="#ffffff" preserveAspectRatio="xMidYMid meet" height="935" width="1500" xmlns="http://www.w3.org/2000/svg" xmlns:xlink="http://www.w3.org/1999/xlink"><g id="tight-bounds" transform="matrix(1,0,0,1,0.2400000000000091,-0.09999999999999432)"><svg viewBox="0 0 395.52 247.2" height="247.2" width="395.52"><g><svg></svg></g><g><svg viewBox="0 0 395.52 247.2" height="247.2" width="395.52"><mask id="05be6cea-8314-4eac-9704-fe98a377dc0b"><rect width="640" height="400" fill="white"></rect><g transform="matrix(1,0,0,1,138.535,37.08)"><svg viewBox="0 0 118.45 173.04" height="173.04" width="118.45"><g><svg viewBox="0 0 118.45 173.04" height="173.04" width="118.45"><g><svg viewBox="0 0 118.45 173.04" height="173.04" width="118.45"><g><svg viewBox="0 0 118.45 173.04" height="173.04" width="118.45"><g id="SvgjsG1289"><svg viewBox="0 0 118.45 173.04" height="173.04" width="118.45" id="SvgjsSvg1288"><g><svg viewBox="0 0 118.45 173.04" height="173.04" width="118.45"><g transform="matrix(1,0,0,1,0,0)"><svg width="118.45" viewBox="-0.10000000000000009 -39 29.75 43" height="173.04" data-palette-color="#ffdc00"><path d="M22.8 0L18.55-12.4Q17.65-12.25 16.55-12.25L16.55-12.25 6.7-12.25 6.7 0 3.9 0 3.9-35 16.2-35Q20.95-35 23.28-32.1 25.6-29.2 25.6-24.3L25.6-24.3Q25.6-20.55 24.78-17.65 23.95-14.75 21.2-13.25L21.2-13.25 25.65 0 22.8 0ZM16.6-15Q19.4-15 20.78-16.5 22.15-18 22.48-19.9 22.8-21.8 22.8-24.15L22.8-24.15Q22.8-28.25 21.1-30.3 19.4-32.35 16.4-32.35L16.4-32.35 6.7-32.35 6.7-15 16.6-15Z" opacity="1" transform="matrix(1,0,0,1,0,0)" fill="black" class="wordmark-text-0" id="SvgjsPath1287" stroke-width="7" stroke="black" stroke-linejoin="round"></path></svg></g></svg></g></svg></g></svg></g></svg></g></svg></g></svg></g></mask><g transform="matrix(1,0,0,1,138.535,37.08)"><svg viewBox="0 0 118.45 173.04" height="173.04" width="118.45"><g><svg viewBox="0 0 118.45 173.04" height="173.04" width="118.45"><g><svg viewBox="0 0 118.45 173.04" height="173.04" width="118.45"><g><svg viewBox="0 0 118.45 173.04" height="173.04" width="118.45"><g id="textblocktransform"><svg viewBox="0 0 118.45 173.04" height="173.04" width="118.45" id="textblock"><g><svg viewBox="0 0 118.45 173.04" height="173.04" width="118.45"><g transform="matrix(1,0,0,1,0,0)"><svg width="118.45" viewBox="-0.10000000000000009 -39 29.75 43" height="173.04" data-palette-color="#ffdc00"><path d="M22.8 0L18.55-12.4Q17.65-12.25 16.55-12.25L16.55-12.25 6.7-12.25 6.7 0 3.9 0 3.9-35 16.2-35Q20.95-35 23.28-32.1 25.6-29.2 25.6-24.3L25.6-24.3Q25.6-20.55 24.78-17.65 23.95-14.75 21.2-13.25L21.2-13.25 25.65 0 22.8 0ZM16.6-15Q19.4-15 20.78-16.5 22.15-18 22.48-19.9 22.8-21.8 22.8-24.15L22.8-24.15Q22.8-28.25 21.1-30.3 19.4-32.35 16.4-32.35L16.4-32.35 6.7-32.35 6.7-15 16.6-15Z" opacity="1" transform="matrix(1,0,0,1,0,0)" fill="#ffdc00" class="wordmark-text-0" data-fill-palette-color="primary" id="text-0"></path></svg></g></svg></g></svg></g></svg></g></svg></g></svg></g></svg></g><g mask="url(#05be6cea-8314-4eac-9704-fe98a377dc0b)"><g transform="matrix(3.1557271557271562, 0, 0, 3.1557271557271562, 46.60066924066919, 0.9999999999999858)"><svg xmlns:x="http://ns.adobe.com/Extensibility/1.0/" xmlns:i="http://ns.adobe.com/AdobeIllustrator/10.0/" xmlns:graph="http://ns.adobe.com/Graphs/1.0/" xmlns="http://www.w3.org/2000/svg" xmlns:xlink="http://www.w3.org/1999/xlink" version="1.1" x="0" y="0" viewBox="2.1000000000000014 11.200000000000001 95.80000000000001 77.69999999999999" enable-background="new 0 0 100 100" xml:space="preserve" height="77.69999999999999" width="95.80000000000001" class="icon-none" data-fill-palette-color="accent" id="none"><path d="M97.9 77.1V35c0-6.2-5-11.2-11.2-11.2H71.2l-0.4-1.5c-1.5-6.5-7.3-11.1-14-11.1H43.1c-6.7 0-12.5 4.6-14 11.1l-0.4 1.5H13.3c-6.2 0-11.2 5-11.2 11.2v42.1c0 6.5 5.3 11.8 11.8 11.8h72.2C92.6 88.9 97.9 83.6 97.9 77.1zM7.1 77.1V35c0-3.4 2.8-6.2 6.2-6.2h17.4c1.2 0 2.2-0.8 2.4-1.9l0.8-3.5c1-4.3 4.7-7.2 9.1-7.2h13.8c4.4 0 8.1 3 9.1 7.2l0.8 3.5c0.3 1.1 1.3 1.9 2.4 1.9h17.4c3.4 0 6.2 2.8 6.2 6.2v42.1c0 3.7-3 6.8-6.8 6.8H13.9C10.2 83.9 7.1 80.8 7.1 77.1zM22 38.8c0 2-1.6 3.6-3.6 3.6-2 0-3.6-1.6-3.6-3.6s1.6-3.6 3.6-3.6C20.4 35.2 22 36.8 22 38.8zM50 36.3c-11.1 0-20.2 9-20.2 20.2 0 11.1 9 20.2 20.2 20.2s20.2-9 20.2-20.2C70.2 45.3 61.1 36.3 50 36.3zM50 71.6c-8.4 0-15.2-6.8-15.2-15.2 0-8.4 6.8-15.2 15.2-15.2s15.2 6.8 15.2 15.2C65.2 64.8 58.4 71.6 50 71.6z" fill="#39cccc" data-fill-palette-color="accent"></path></svg><g></g></g></g></svg></g><defs></defs></svg><rect width="395.52" height="247.2" fill="none" stroke="none" visibility="hidden"></rect></g></svg></g></svg>